<svg width="292" height="316" viewBox="0 0 292 316" fill="none" xmlns="http://www.w3.org/2000/svg">
<path d="M46 39L163 0.5L276 72L291.5 223L163 316L46 277.5L0 134L46 39Z" fill="#D9D9D9"/>
<path d="M122.004 286.5L185.252 279L236.408 234L248.5 126.5L221.992 71.5L149 60L74.1024 71.5L55.5 126.5L68.5217 247L122.004 286.5Z" fill="#B8AA95"/>
<path d="M225.5 54L230 88L75 96.5L57 122.5L65.5 57.5L105 35.5L225.5 54Z" fill="#171717"/>
<path d="M99 145L58.5 138L56 138.5M99 145L112.5 164.5L149 156L141.486 147.5M99 145L126 130.5L141.486 147.5M141.486 147.5L177.047 145M211 141.5L216.5 160L185 163L175.5 141.5L206 125.5L211 141.5ZM211 141.5L246 134.5L248 135" stroke="#171717" stroke-width="8"/>
<path d="M142.5 185.5L156.5 161.5H164.5L177 179.5L182.5 195.5L164.5 205.5L142.5 201.5V185.5Z" fill="#8D7E69"/>
<path d="M131.597 211.065L119.001 231L166.173 234.787L204.501 224.5L188.269 210.129L131.597 211.065Z" fill="#B5938B"/>
</svg>
