<svg width="781" height="440" viewBox="0 0 781 440" fill="none" xmlns="http://www.w3.org/2000/svg">
<path d="M180.5 14L368 0.5L350 60.5L454.5 77L549 60.5L630.5 77L740.5 60.5L781 138.5L749.5 176.5L650 162.5L568 185L583 232L427 261L275.5 249.5L302 346.5L173.5 439.5L56.5 401L10.5 257.5L56.5 162.5H0.5L10.5 142.5L0.5 69.5L56.5 77L85 45L74.5 0.5L180.5 14Z" fill="#D9D9D9"/>
<path d="M176.44 23.08V79H162.04V37.48H160.68L144.44 78.84H132.2L115.72 37.48H114.52V79H100.12V23.08H125.48L138.28 55.16L150.84 23.08H176.44ZM255.643 50.84C255.643 69.24 242.283 80.2 219.883 80.2C209.963 80.2 201.803 78.04 195.643 73.8C188.203 68.68 184.202 60.76 184.202 50.84C184.202 32.52 197.563 21.56 219.883 21.56C229.883 21.56 238.043 23.64 244.203 27.88C251.643 33.08 255.643 41 255.643 50.84ZM241.243 50.84C241.243 40.92 234.043 35.88 219.883 35.88C198.603 35.88 198.603 47.16 198.603 50.84C198.603 60.76 205.803 65.8 219.883 65.8C241.243 65.8 241.243 54.6 241.243 50.84ZM313.321 23.08H331.081V79H316.681V40.36L279.321 79H263.401V23.08H277.801V59.8L313.321 23.08ZM308.041 18.68L289.401 33.48L283.081 27.08L297.881 8.44L308.041 18.68Z" fill="#171717"/>
<path d="M322.04 167.08H339.8V223H325.4V184.36L288.04 223H272.12V167.08H286.52V203.8L322.04 167.08ZM385.451 167.08L407.131 223H391.531L376.731 184.52L361.131 223H345.371L368.251 167.08H385.451ZM471.543 218.76C467.463 221.56 462.183 223 455.863 223H412.823V167.16H427.223V183.16H455.863C470.423 183.16 479.463 190.76 479.463 203.08C479.463 209.72 476.663 215.32 471.543 218.76ZM427.223 197.56V208.6H455.863C465.063 208.6 465.063 204.76 465.063 203.08C465.063 201.32 465.063 197.56 455.863 197.56H427.223ZM508.51 167.08H551.47V222.92H537.15V206.92H509.47L499.87 223H482.83L494.43 203.8C488.35 200.44 484.91 194.6 484.91 187C484.91 180.36 487.71 174.84 492.83 171.32C496.83 168.52 502.11 167.08 508.51 167.08ZM508.51 192.52H537.15V181.48H508.51C499.31 181.48 499.31 185.4 499.31 187C499.31 188.84 499.31 192.52 508.51 192.52Z" fill="#171717"/>
<path d="M48.52 109.48V151H34.12V95.08H82.76V109.48H48.52ZM158.002 122.84C158.002 141.24 144.642 152.2 122.242 152.2C112.322 152.2 104.162 150.04 98.0019 145.8C90.5619 140.68 86.5619 132.76 86.5619 122.84C86.5619 104.52 99.9219 93.56 122.242 93.56C132.242 93.56 140.402 95.64 146.562 99.88C154.002 105.08 158.002 113 158.002 122.84ZM143.602 122.84C143.602 112.92 136.402 107.88 122.242 107.88C100.962 107.88 100.962 119.16 100.962 122.84C100.962 132.76 108.162 137.8 122.242 137.8C143.602 137.8 143.602 126.6 143.602 122.84ZM237.201 133.48C237.201 141.96 231.681 151 216.241 151H165.681L165.841 95H212.321C225.041 95 233.281 101.88 233.281 112.6C233.281 115.32 232.721 118.12 231.441 120.68C235.121 123.72 237.201 128.12 237.201 133.48ZM180.161 130.28L180.081 136.6H216.241C219.921 136.6 221.521 135.8 222.001 135.48C222.401 135.24 222.801 135 222.801 133.48C222.801 132.52 222.801 130.28 216.241 130.28H180.161ZM180.161 109.4V115.88H212.321C215.921 115.88 217.521 115.08 218.081 114.68C218.401 114.44 218.881 114.12 218.881 112.6C218.881 111.64 218.881 109.4 212.321 109.4H180.161ZM313.939 122.84C313.939 141.24 300.579 152.2 278.179 152.2C268.259 152.2 260.099 150.04 253.939 145.8C246.499 140.68 242.499 132.76 242.499 122.84C242.499 104.52 255.859 93.56 278.179 93.56C288.179 93.56 296.339 95.64 302.499 99.88C309.939 105.08 313.939 113 313.939 122.84ZM299.539 122.84C299.539 112.92 292.339 107.88 278.179 107.88C256.899 107.88 256.899 119.16 256.899 122.84C256.899 132.76 264.099 137.8 278.179 137.8C299.539 137.8 299.539 126.6 299.539 122.84ZM336.098 135V151H321.698V95.16H364.738C371.058 95.16 376.338 96.6 380.418 99.4C385.538 102.92 388.338 108.44 388.338 115.08C388.338 127.4 379.298 135 364.738 135H336.098ZM336.098 109.56V120.6H364.738C373.938 120.6 373.938 116.92 373.938 115.08C373.938 113.48 373.938 109.56 364.738 109.56H336.098ZM418.088 95.08H461.048V150.92H446.728V134.92H419.048L409.448 151H392.408L404.008 131.8C397.928 128.44 394.488 122.6 394.488 115C394.488 108.36 397.288 102.84 402.408 99.32C406.408 96.52 411.688 95.08 418.088 95.08ZM418.088 120.52H446.728V109.48H418.088C408.888 109.48 408.888 113.4 408.888 115C408.888 116.84 408.888 120.52 418.088 120.52ZM570.186 151.96L546.586 155.4L545.386 150.76H471.386V94.84H485.786V136.36H508.026V94.84H522.346V136.36H544.586V94.84H558.986V141L566.506 138.04L570.186 151.96ZM625.603 95.08H643.363V151H628.963V112.36L591.603 151H575.683V95.08H590.083V131.8L625.603 95.08ZM703.493 95.08H721.253V151H706.853V112.36L669.493 151H653.573V95.08H667.973V131.8L703.493 95.08ZM698.213 90.68L679.573 105.48L673.253 99.08L688.053 80.44L698.213 90.68Z" fill="#171717"/>
<path d="M132.504 410L195.752 402.5L246.908 357.5L259 250L232.492 195L159.5 183.5L84.6024 195L66 250L79.0217 370.5L132.504 410Z" fill="#B8AA95"/>
<path d="M236 177.5L240.5 211.5L85.5 220L67.5 246L76 181L115.5 159L236 177.5Z" fill="#171717"/>
<path d="M109.5 268.5L69 261.5L66.5 262M109.5 268.5L123 288L159.5 279.5L151.986 271M109.5 268.5L136.5 254L151.986 271M151.986 271L187.547 268.5M221.5 265L227 283.5L195.5 286.5L186 265L216.5 249L221.5 265ZM221.5 265L256.5 258L258.5 258.5" stroke="#171717" stroke-width="8"/>
<path d="M153 309L167 285H175L187.5 303L193 319L175 329L153 325V309Z" fill="#8D7E69"/>
<path d="M142.096 334.565L129.5 354.5L176.672 358.287L215 348L198.768 333.629L142.096 334.565Z" fill="#B5938B"/>
</svg>
